<svg width="123" height="45" viewBox="0 0 123 45" fill="none" xmlns="http://www.w3.org/2000/svg">
<path d="M18.9207 32.6703L18.9902 32.8793C18.9902 33.4365 18.8743 34.0402 18.6424 34.6904C18.4106 35.3406 18.2714 35.6656 18.2251 35.6656H18.1555C18.1091 35.6656 18.0627 35.6424 18.0164 35.596L0.834736 26.8189C0.278245 26.5402 0 25.9365 0 25.0077C0 24.4969 0.278245 24.1254 0.834736 23.8932L17.9468 15.3251C18.0396 15.2322 18.1091 15.1858 18.1555 15.1858C18.3874 15.1858 18.6424 16.0681 18.9207 17.8328C18.9207 18.0186 18.8743 18.1579 18.7815 18.2508L4.24324 25.356L18.8511 32.6006L18.9207 32.6703Z" fill="#374760"/>
<path d="M41.7964 18.1115C40.5443 18.0186 39.756 17.9489 39.4313 17.9025C39.1067 17.856 38.9444 17.8793 38.9444 17.9721C39.5936 18.9474 39.9183 19.969 39.9183 21.0372C39.9183 22.1053 39.7096 23.0573 39.2922 23.8932C38.8748 24.7291 38.272 25.4489 37.4836 26.0526C35.8141 27.4458 33.8432 28.1424 31.5709 28.1424C30.6898 28.1424 29.9014 28.0728 29.2058 27.9334C28.974 28.1656 28.7189 28.3978 28.4406 28.63C28.2088 28.8622 28.0928 29.1409 28.0928 29.4659C28.0928 29.7446 28.3247 30 28.7885 30.2322C29.2522 30.418 29.8319 30.5108 30.5275 30.5108C31.2695 30.5108 32.2201 30.5108 33.3795 30.5108C34.5852 30.4644 35.6518 30.4876 36.5793 30.5805C37.5068 30.6269 38.3415 30.8591 39.0835 31.2771C39.8719 31.6486 40.5211 32.0898 41.0312 32.6006C42.0051 33.5759 42.492 34.6672 42.492 35.8746C42.492 37.082 42.1442 38.2663 41.4486 39.4272C40.753 40.5882 39.8255 41.5635 38.6662 42.3529C36.162 44.1176 33.3331 45 30.1797 45C27.9073 45 26.0524 44.5124 24.6148 43.5372C23.2236 42.5619 22.5279 41.2848 22.5279 39.7059C22.5279 38.7771 22.9453 37.8947 23.78 37.0588C24.6612 36.2693 25.5423 35.6656 26.4234 35.2477C25.635 35.0155 24.9626 34.4582 24.4061 33.5759C23.896 32.6471 23.6409 31.695 23.6409 30.7198C23.6409 29.9768 24.9162 28.8622 27.4668 27.3762C26.1219 26.8653 25.0553 26.0991 24.267 25.0774C23.525 24.0093 23.154 22.8947 23.154 21.7337C23.154 20.5728 23.3627 19.5975 23.78 18.8081C24.2438 17.9721 24.8467 17.2291 25.5886 16.5789C27.1654 15.2786 29.1363 14.6285 31.5013 14.6285C33.5882 14.6285 35.2113 15 36.3706 15.743C36.4634 15.8359 36.5561 15.8824 36.6489 15.8824L42.4225 15.3251C42.7471 15.5108 42.9094 15.6966 42.9094 15.8824C42.9094 16.0217 42.7703 16.3932 42.492 16.9969C42.2602 17.6006 42.0283 17.9721 41.7964 18.1115ZM28.3015 35.596C27.7914 36.2461 27.5364 36.9195 27.5364 37.6161C27.5364 39.1486 28.0465 40.3328 29.0667 41.1687C30.0869 42.0046 31.2695 42.4226 32.6143 42.4226C34.0056 42.4226 35.049 42.2833 35.7446 42.0046C36.4402 41.7724 36.9967 41.4706 37.4141 41.0991C38.1097 40.4954 38.4575 39.6827 38.4575 38.661C38.4575 37.6393 37.9706 36.8731 36.9967 36.3622C36.0228 35.8514 34.7939 35.596 33.3099 35.596H28.3015ZM31.2927 16.3003C29.8087 16.3003 28.974 17.2755 28.7885 19.226C28.7421 19.7833 28.7189 20.3638 28.7189 20.9675C28.7189 21.5248 28.7653 22.1517 28.858 22.8483C28.9971 23.4985 29.1826 24.1022 29.4145 24.6594C30.0174 25.8669 30.8753 26.4706 31.9883 26.4706C33.4723 26.4706 34.2374 25.4489 34.2838 23.4056C34.3302 22.8947 34.3534 22.3607 34.3534 21.8034C34.3534 21.2461 34.307 20.6424 34.2142 19.9923C34.1215 19.2957 33.9592 18.6687 33.7273 18.1115C33.1708 16.904 32.3593 16.3003 31.2927 16.3003Z" fill="#374760"/>
<path d="M62.2434 29.257C62.6144 29.3498 62.7999 29.5356 62.7999 29.8142V30.5108C62.7999 30.7895 62.4752 31.2539 61.826 31.904C61.2231 32.5542 60.5507 33.1115 59.8087 33.5759C58.0929 34.7833 56.4234 35.387 54.8003 35.387C53.2236 35.387 51.8555 35.178 50.6962 34.7601C49.5368 34.2957 48.5166 33.6455 47.6355 32.8096C45.6878 30.952 44.7139 28.6068 44.7139 25.774C44.7139 22.8947 45.9197 20.2941 48.3311 17.9721C50.7889 15.5573 53.5714 14.3498 56.6785 14.3498C58.8581 14.3498 60.4116 14.6285 61.3391 15.1858C61.9419 15.7895 62.2434 16.4861 62.2434 17.2755C62.2434 18.0186 62.0115 18.7152 61.5478 19.3653C61.084 19.969 60.4811 20.2709 59.7392 20.2709C58.9972 20.2709 58.4175 20.0387 58.0001 19.5743C57.5828 19.0635 57.1886 18.5991 56.8176 18.1811C55.9829 17.2523 54.9394 16.7879 53.6873 16.7879C52.7598 16.7879 51.9715 17.4845 51.3222 18.8777C50.7658 20.0851 50.4875 21.5016 50.4875 23.1269C50.4875 24.7523 50.6962 26.0991 51.1136 27.1672C51.5309 28.2353 52.0642 29.0944 52.7135 29.7446C53.9192 30.952 55.2872 31.5557 56.8176 31.5557C58.3479 31.5557 59.5073 31.3003 60.2957 30.7895C61.084 30.2786 61.7333 29.7678 62.2434 29.257Z" fill="#374760"/>
<path d="M81.8075 29.257C82.1785 29.3498 82.364 29.5356 82.364 29.8142V30.5108C82.364 30.7895 82.0394 31.2539 81.3901 31.904C80.7872 32.5542 80.1148 33.1115 79.3728 33.5759C77.657 34.7833 75.9875 35.387 74.3644 35.387C72.7877 35.387 71.4197 35.178 70.2603 34.7601C69.101 34.2957 68.0807 33.6455 67.1996 32.8096C65.2519 30.952 64.278 28.6068 64.278 25.774C64.278 22.8947 65.4838 20.2941 67.8952 17.9721C70.3531 15.5573 73.1355 14.3498 76.2426 14.3498C78.4222 14.3498 79.9757 14.6285 80.9032 15.1858C81.5061 15.7895 81.8075 16.4861 81.8075 17.2755C81.8075 18.0186 81.5756 18.7152 81.1119 19.3653C80.6481 19.969 80.0453 20.2709 79.3033 20.2709C78.5613 20.2709 77.9816 20.0387 77.5642 19.5743C77.1469 19.0635 76.7527 18.5991 76.3817 18.1811C75.547 17.2523 74.5035 16.7879 73.2514 16.7879C72.324 16.7879 71.5356 17.4845 70.8864 18.8777C70.3299 20.0851 70.0516 21.5016 70.0516 23.1269C70.0516 24.7523 70.2603 26.0991 70.6777 27.1672C71.095 28.2353 71.6283 29.0944 72.2776 29.7446C73.4833 30.952 74.8514 31.5557 76.3817 31.5557C77.9121 31.5557 79.0714 31.3003 79.8598 30.7895C80.6481 30.2786 81.2974 29.7678 81.8075 29.257Z" fill="#374760"/>
<path d="M86.9724 35.596C86.926 35.7817 86.7174 35.9907 86.3464 36.2229C86.0217 36.4551 85.5812 36.5712 85.0247 36.5712C84.2363 36.5712 83.8422 36.4551 83.8422 36.2229L97.4066 0.975233C97.5921 0.603715 97.8472 0.348299 98.1718 0.208979C98.4964 0.0696602 98.9138 0 99.4239 0C99.934 0 100.212 0.0464388 100.259 0.139318C100.351 0.232198 100.444 0.301859 100.537 0.348297L86.9724 35.596Z" fill="#374760"/>
<path d="M104.914 35.596L104.705 35.6656C104.613 35.6656 104.52 35.5263 104.427 35.2477C104.381 35.0155 104.311 34.7368 104.218 34.4118C104.033 33.7616 103.94 33.2508 103.94 32.8793C103.94 32.6935 103.987 32.6006 104.079 32.6006L118.757 25.356L104.149 18.2508C104.01 18.1115 103.963 17.9721 104.01 17.8328C104.381 16.0681 104.613 15.1858 104.705 15.1858C104.798 15.1858 104.891 15.2322 104.984 15.3251L122.165 23.8932C122.722 24.1254 123 24.4505 123 24.8684C123 25.8901 122.722 26.5402 122.165 26.8189L104.914 35.596Z" fill="#374760"/>
</svg>
