<?xml version="1.0" encoding="utf-8"?>
<!-- Generator: Adobe Illustrator 16.0.0, SVG Export Plug-In . SVG Version: 6.00 Build 0)  -->
<!DOCTYPE svg PUBLIC "-//W3C//DTD SVG 1.1//EN" "http://www.w3.org/Graphics/SVG/1.1/DTD/svg11.dtd">
<svg version="1.1" xmlns="http://www.w3.org/2000/svg" xmlns:xlink="http://www.w3.org/1999/xlink" x="0px" y="0px" width="96px"
	 height="115.539px" viewBox="0 0 96 115.539" enable-background="new 0 0 96 115.539" xml:space="preserve">
<g id="BACKGROUND">
</g>
<g id="OBJECTS">
	<g>
		<path fill="#FA968C" d="M54.057,76.699c0,0-1.612,2.816-2.431,3.342c-0.819,0.526-1.842,1.755-0.907,2.749
			c0.695,0.738,1.412,1.6,2.023,2.133c0.526,0.458,1.188,0.718,1.886,0.74c1.23,0.038,3.12,0.09,3.431,0.052
			c0.468-0.059-0.205-1.229-1.959-1.463c-1.755-0.233-2.855-3.04-0.636-5.936L54.057,76.699z"/>
		<path fill="#FA968C" d="M71.796,59.771c-2.092,2.576-18.957,22.304-19.652,21.412c-0.603-0.773,12.112-23.26,14.205-25.836
			s5.008-3.674,6.512-2.453C74.365,54.116,73.888,57.194,71.796,59.771z"/>
		<path fill="#FF3C3C" d="M46.5,8.269c-0.226-0.96-0.986-1.723-1.946-1.952c0,0,0.425,1.805-5.955,1.812H38.21
			c-0.962,0-1.835,0.559-2.239,1.433c-0.026,0.08-0.061,0.155-0.077,0.233c-0.791,3.856-7.203,6.647-8.807,6.733
			c-4.954,0.264-9.01,4.625-8.505,9.944c0.396,4.166,3.733,7.595,7.888,8.098c5.509,0.667,10.192-3.616,10.192-8.992
			c0-1.049-0.187-2.052-0.515-2.989c2.255-0.646,3.84-2.84,3.505-5.373c0.513-0.146,0.808-0.444,0.704-0.978
			c-0.333-1.709,3.269-4.635,3.539-4.635C45.589,11.604,46.916,10.033,46.5,8.269z"/>
		<path fill="#FA968C" d="M47.699,27.22c0.565,3.399,1.326,17.923-0.659,18.253s-5.964-13.659-6.529-17.058
			c-0.565-3.399,0.586-6.422,2.571-6.752S47.134,23.821,47.699,27.22z"/>
		<path fill="#FF965A" d="M41.953,34.21c1.118-1.115,2.695-1.84,4.74-1.84c0.526,0,1.019,0.052,1.483,0.141
			c-0.125-2.299-0.309-4.284-0.477-5.291c-0.565-3.399-2.632-5.887-4.617-5.557s-3.136,3.353-2.571,6.752
			C40.694,29.517,41.237,31.732,41.953,34.21z"/>
		<path fill="#FA968C" d="M47.373,40.218c2.086-0.846,15.5-5.47,15.967-4.318c0.467,1.152-12.19,7.643-14.276,8.488
			c-2.086,0.846-4.156,0.599-4.623-0.553C43.974,42.684,45.287,41.064,47.373,40.218z"/>
		<path fill="#F07D4B" d="M48.542,32.398l-2.062-6.082l0.078-0.757c0.216-2.1-1.431-3.926-3.542-3.926H30.453
			c-1.909,0-3.251,1.878-2.633,3.684l5.936,17.356l1.847,5.946l8.446,1.34l1.377-13.389h0.125
			C47.713,36.572,49.236,34.447,48.542,32.398z"/>
		<path fill="#AA321E" d="M51.311,44.857c5.139,1.315,23.049,5.765,22.099,9.478s-24.042,3.941-29.265,3.015
			c-10.627-1.886-10.711-10.332-6.252-13.586C40.989,41.504,46.171,43.542,51.311,44.857z"/>
		<path fill="#FAB9AF" d="M58.983,76.12c-0.872,3.176-8.316,27.838-9.305,27.305c-0.857-0.462,1.715-25.973,2.587-29.149
			c0.873-3.177,3.083-5.339,4.938-4.829C59.059,69.955,59.855,72.943,58.983,76.12z"/>
		<path fill="#51946F" d="M54.057,76.699c0,0-1.612,2.816-2.431,3.342c-0.819,0.526-1.842,1.755-0.907,2.749
			c0.695,0.738,1.412,1.6,2.023,2.133c0.526,0.458,1.188,0.718,1.886,0.74c1.23,0.038,3.12,0.09,3.431,0.052
			c0.468-0.059-0.205-1.229-1.959-1.463c-1.755-0.233-2.855-3.04-0.636-5.936L54.057,76.699z"/>
		<path fill="#AA321E" d="M71.796,59.771c-2.092,2.576-18.957,22.304-19.652,21.412c-0.603-0.773,12.112-23.26,14.205-25.836
			s5.008-3.674,6.512-2.453C74.365,54.116,73.888,57.194,71.796,59.771z"/>
		<path fill="#C8462D" d="M57.204,69.446c-1.855-0.51-4.065,1.652-4.938,4.829c-0.55,2.005-1.778,12.907-2.393,20.793
			c0.214-0.017,0.429-0.031,0.654-0.031c0.906,0,1.717,0.146,2.441,0.4c2.474-7.343,5.48-17.369,6.015-19.317
			C59.855,72.943,59.059,69.955,57.204,69.446z"/>
		<path fill="#C8462D" d="M47.057,53.312c3.275,4.123,14.77,18.384,11.792,20.75s-21.376-11.304-24.952-15.17
			c-7.273-7.866-2.273-14.596,3.205-14.494C40.906,44.469,43.782,49.188,47.057,53.312z"/>
		<path fill="#FAB9AF" d="M49.694,97.536c0,0-0.493,3.015-1.179,4.613s-0.329,2.029,1.278,2.676
			c1.325,0.533,2.195,3.681,2.908,3.715c0.709,0.033,0.13-2.968-0.913-4.839c-0.877-1.575-0.403-3.203-0.162-4.601L49.694,97.536z"
			/>
		<path fill="#51946F" d="M48.496,102.198c-0.656,1.556-0.292,1.987,1.296,2.627c1.325,0.533,2.195,3.681,2.908,3.715
			c0.627,0.029,0.246-2.314-0.572-4.151C50.562,104.068,49.354,103.263,48.496,102.198z"/>
		<path fill="#FA968C" d="M62.846,33.242c0,0-1.704,1.875-1.304,2.585c0.4,0.709,0.799,1.113,1.854,0.569
			c1.055-0.543,2.243-1.792,2.805-2.683s0.875-2.783,0.774-3.007c-0.365-0.817-1.214,0.904-1.667,1.717s-1.043,1.687-1.373,1.359
			c-0.33-0.328,0.653-1.821,0.399-2.322S62.846,33.242,62.846,33.242z"/>
		<path fill="#41B4E6" d="M62.732,38.43l-0.57-0.198c-0.375-0.131-0.574-0.542-0.443-0.917l4.087-11.738
			c0.131-0.376,0.542-0.575,0.917-0.443l0.57,0.198c0.376,0.131,0.574,0.542,0.443,0.917L63.65,37.986
			C63.519,38.362,63.108,38.561,62.732,38.43z"/>
		<path fill="#FA968C" d="M63.002,31.722c0.035-0.094,0.112-0.166,0.209-0.193c0.097-0.027,0.201-0.006,0.279,0.057
			c0.468,0.374,1.176,1.061,0.52,1.37c-0.926,0.436-1.1,0.933-1.1,0.933l-0.921,0.588L63.002,31.722z"/>
		<path fill="#FAB9AF" d="M34.826,26.291c1.159,3.245,4.486,17.404,2.591,18.081c-1.895,0.677-8.293-12.384-9.453-15.628
			c-1.16-3.245-0.563-6.425,1.332-7.102C31.19,20.964,33.666,23.046,34.826,26.291z"/>
		<path fill="#FF965A" d="M36.026,32.036c0.123,0,0.237,0.012,0.357,0.018c-0.579-2.513-1.182-4.711-1.558-5.763
			c-1.16-3.245-3.636-5.327-5.53-4.649c-1.895,0.677-2.491,3.856-1.332,7.102c0.4,1.119,1.423,3.407,2.67,5.896
			C31.75,33.101,33.545,32.036,36.026,32.036z"/>
		<path fill="#FAB9AF" d="M40.103,41.225c2.17,0.597,15.63,5.085,15.301,6.283c-0.33,1.198-14.324-1.347-16.495-1.944
			s-3.663-2.053-3.333-3.251S37.933,40.627,40.103,41.225z"/>
		<path fill="#FAB9AF" d="M53.023,46.298c0,0,4.307-0.661,4.945-0.444s3.734,1.366,3.283,1.698c-0.451,0.333-2.329,0.16-3.603-0.16
			c-1.273-0.32-1.476,0.564-3.643,0.442C53.471,47.805,53.023,46.298,53.023,46.298z"/>
		<path fill="#FA968C" d="M41.744,30.902c-2.611,0.927-6.081-9.268-6.081-9.268l2.653-5.207l2.483,0.507v4.699
			C40.798,21.634,43.938,30.123,41.744,30.902z"/>
		<g>
			<path fill="#FAB9AF" d="M43.813,13.449c0,2.622-0.87,6.803-2.86,6.803c-1.991,0-4.139-2.995-4.139-5.617s1.159-4.138,3.15-4.138
				C41.955,10.497,43.813,10.827,43.813,13.449z"/>
			<path fill="#FF9669" d="M36.883,13.608h5.042c0.532,0,1.458-0.362,1.864-0.643c0-1.878-0.926-2.815-3.826-2.468
				C38.262,10.701,37.155,11.623,36.883,13.608z"/>
			<path fill="#FF3C3C" d="M41.925,13.119h-5.803v-1.157c0-1.381,1.12-2.5,2.5-2.5h5.819v1.141
				C44.441,11.993,43.315,13.119,41.925,13.119z"/>
			<path fill="#FF3C3C" d="M37.781,15.095L37.781,15.095v-2.886h1.26v1.626C39.041,14.531,38.477,15.095,37.781,15.095z"/>
			<path fill="#FAB9AF" d="M38.262,14.536c0,0.868-0.273,1.571-0.98,1.571s-1.003-1.004-1.003-1.872
				c0-0.868,0.297-1.271,1.003-1.271S38.262,13.668,38.262,14.536z"/>
		</g>
	</g>
</g>
<g id="DESIGNED_BY_FREEPIK">
</g>
</svg>
